<svg xmlns="http://www.w3.org/2000/svg" width="1600" height="1205.471" viewBox="0 0 1600 1205.471">
  <defs>
    <style>
      .cls-1 {
        fill: #36197f;
        fill-rule: evenodd;
      }
    </style>
  </defs>
  <path id="leaf_bg.svg" class="cls-1" d="M1773.23,904.585s44.04-15.815-2.12-42.551-101.9-34.661-137.91-173.056-63.69-181.7-102.4-207.085S1490.32,494,1483.69,506.5s-37.42,54.906-81.91-3.652c-43.57-57.359-70.66-104.618-94.51-149.062S1169.95,98.579,1080.38,243.141c0,0-14.35,31.972-26.28,65.471s-53.58,101.516-163.1,6.879c0,0-77.072-74.5-146.894-137.644S545.894,96.977,565.2,221.628s119.4,197.536-60.834,180.537c0,0-65.2-7.273-174.746-57.493s-157.839,24.077-163.964,35.743-34.835,33.759,56.04,92.928S205.14,574.492,127.51,577.512-3.069,654.981,54.531,691.4s2.674,52.08-45.076,88.685S-49.124,850.9-37.688,881.164s51.064,35.053,98.76,26.265,96,23.007,66.641,97.781,63.936,78.96,123.652,63.86,269.84-52.31,161.371,50.85,43.812,132.89,146.764,104.21,287.3-93.69,287.3-93.69,118.446-47.4,74.625,57.81-5.054,197.6,148.753,113.34c0,0,93.87-58.32,159.02-135.03,55.65-65.52,107.86-6.89,100.54,23.49-7.7,31.92-26.4,96.6,98.76,26.26,0,0,61.81-52.95,76.46-97.92s71.36-81.68,138.28-65.99,39.79-25.4,39.79-25.4S814.332,620.5-2.167,847.135C-2.167,847.135,549.988,554.825,1773.23,904.585Z" transform="translate(0 -128.969)"/>
</svg>
