<svg id="skills1.svg" xmlns="http://www.w3.org/2000/svg" xmlns:xlink="http://www.w3.org/1999/xlink" width="364" height="332" viewBox="0 0 364 332">
  <defs>
    <style>
      .cls-1 {
        fill: #fff;
        filter: url(#filter);
      }

      .cls-1, .cls-2, .cls-3, .cls-4 {
        fill-rule: evenodd;
      }

      .cls-2 {
        fill: #fcf8f3;
      }

      .cls-3 {
        fill: #fed09a;
      }

      .cls-4 {
        fill: #fdb157;
      }
    </style>
    <filter id="filter" x="168" y="1435" width="364" height="331" filterUnits="userSpaceOnUse">
      <feOffset result="offset" dy="59" in="SourceAlpha"/>
      <feGaussianBlur result="blur" stdDeviation="6.782"/>
      <feFlood result="flood" flood-color="#e0f1ff" flood-opacity="0.34"/>
      <feComposite result="composite" operator="in" in2="blur"/>
      <feBlend result="blend" in="SourceGraphic"/>
    </filter>
  </defs>
  <path id="Rounded_Rectangle_2_copy_2" data-name="Rounded Rectangle 2 copy 2" class="cls-1" d="M235,1435H464c20.952,0,20,.24,20,20v194c0,11.04-.343,9-20,9H235c-19.964,0-20-.56-20-20V1455C215,1435.43,215.036,1435,235,1435Z" transform="translate(-168 -1434)"/>
  <path id="Rounded_Rectangle_2_copy_11" data-name="Rounded Rectangle 2 copy 11" class="cls-2" d="M215,1587V1454c0-19.57.036-20,20-20H464c20.952,0,20,.24,20,20v134" transform="translate(-168 -1434)"/>
  <path id="Rectangle_1_copy_5" data-name="Rectangle 1 copy 5" class="cls-3" d="M215,1449s48.487,27,132,27c69.313,0,137-37,137-37v132.03H215V1449Z" transform="translate(-168 -1434)"/>
  <path id="Rectangle_1_copy_6" data-name="Rectangle 1 copy 6" class="cls-4" d="M215,1454s48.487,29,132,29c69.313,0,137-29,137-29v132.03H215V1454Z" transform="translate(-168 -1434)"/>
</svg>
