<svg id="skills2.svg" xmlns="http://www.w3.org/2000/svg" xmlns:xlink="http://www.w3.org/1999/xlink" width="364" height="332" viewBox="0 0 364 332">
  <defs>
    <style>
      .cls-1 {
        fill: #fff;
        filter: url(#filter);
      }

      .cls-1, .cls-2, .cls-3, .cls-4 {
        fill-rule: evenodd;
      }

      .cls-2 {
        fill: #f9f7fe;
      }

      .cls-3 {
        fill: #bfabf0;
      }

      .cls-4 {
        fill: #9473e6;
      }
    </style>
    <filter id="filter" x="468" y="1435" width="364" height="331" filterUnits="userSpaceOnUse">
      <feOffset result="offset" dy="59" in="SourceAlpha"/>
      <feGaussianBlur result="blur" stdDeviation="6.782"/>
      <feFlood result="flood" flood-color="#e0f1ff" flood-opacity="0.34"/>
      <feComposite result="composite" operator="in" in2="blur"/>
      <feBlend result="blend" in="SourceGraphic"/>
    </filter>
  </defs>
  <path id="Rounded_Rectangle_2_copy_8" data-name="Rounded Rectangle 2 copy 8" class="cls-1" d="M535,1435H764c20.952,0,20,.24,20,20v194c0,11.04-.343,9-20,9H535c-19.964,0-20-.56-20-20V1455C515,1435.43,515.036,1435,535,1435Z" transform="translate(-468 -1434)"/>
  <path id="Rounded_Rectangle_2_copy_12" data-name="Rounded Rectangle 2 copy 12" class="cls-2" d="M515,1587V1454c0-19.57.036-20,20-20H764c20.952,0,20,.24,20,20v134" transform="translate(-468 -1434)"/>
  <path id="Rectangle_1_copy_7" data-name="Rectangle 1 copy 7" class="cls-3" d="M515,1497a812.285,812.285,0,0,0,119,9c69.521,0,150-40,150-40v121.03H515V1497Z" transform="translate(-468 -1434)"/>
  <path id="Rectangle_1_copy_10" data-name="Rectangle 1 copy 10" class="cls-4" d="M515,1497s54.186,16,119,16c69.521,0,150-29,150-29v103.03H515V1497Z" transform="translate(-468 -1434)"/>
</svg>
